<svg width="118" height="118" viewBox="0 0 118 118" fill="none" xmlns="http://www.w3.org/2000/svg">
<path d="M59.0003 0.666626C26.8003 0.666626 0.666992 26.8 0.666992 59C0.666992 91.2 26.8003 117.333 59.0003 117.333C91.2003 117.333 117.334 91.2 117.334 59C117.334 26.8 91.2003 0.666626 59.0003 0.666626ZM59.0003 18.1666C68.6837 18.1666 76.5003 25.9833 76.5003 35.6666C76.5003 45.35 68.6837 53.1666 59.0003 53.1666C49.317 53.1666 41.5003 45.35 41.5003 35.6666C41.5003 25.9833 49.317 18.1666 59.0003 18.1666ZM59.0003 101C44.417 101 31.5253 93.5333 24.0003 82.2166C24.1753 70.6083 47.3337 64.25 59.0003 64.25C70.6087 64.25 93.8253 70.6083 94.0003 82.2166C86.4753 93.5333 73.5837 101 59.0003 101Z" fill="#717171"/>
</svg>
